<mxfile host="app.diagrams.net" modified="2024-04-25T02:06:48.500Z" agent="Mozilla/5.0 (Windows NT 10.0; Win64; x64) AppleWebKit/537.36 (KHTML, like Gecko) Chrome/124.0.0.0 Safari/537.36" etag="3UAJ3qP99VERylInr8Z3" version="24.2.8" type="github">
  <diagram name="第 1 页" id="1XJYP80JxbJxhC29MnGr">
    <mxGraphModel dx="1687" dy="2047" grid="1" gridSize="10" guides="1" tooltips="1" connect="1" arrows="1" fold="1" page="1" pageScale="1" pageWidth="827" pageHeight="1169" math="0" shadow="0">
      <root>
        <mxCell id="0" />
        <mxCell id="1" parent="0" />
        <mxCell id="E5HeOITvc19GQo7BnL5s-1" value="qps百万流量的架构：&lt;div&gt;&lt;br&gt;&lt;/div&gt;&lt;div&gt;&lt;span style=&quot;white-space: pre;&quot;&gt;&#x9;&lt;/span&gt;&lt;br&gt;&lt;/div&gt;" style="rounded=0;whiteSpace=wrap;html=1;fontSize=18;verticalAlign=top;align=left;" vertex="1" parent="1">
          <mxGeometry x="130" y="510" width="710" height="330" as="geometry" />
        </mxCell>
        <mxCell id="E5HeOITvc19GQo7BnL5s-2" value="各种媒介的延时情况：&lt;div&gt;&lt;span style=&quot;white-space: pre;&quot;&gt;&#x9;&lt;/span&gt;CPU：&lt;br&gt;&lt;/div&gt;&lt;div&gt;&lt;span style=&quot;white-space: pre;&quot;&gt;&#x9;&lt;/span&gt;&lt;span style=&quot;white-space: pre;&quot;&gt;&#x9;&lt;/span&gt;L1缓存：1ns。&lt;br&gt;&lt;/div&gt;&lt;div&gt;&lt;span style=&quot;white-space: pre;&quot;&gt;&#x9;&lt;/span&gt;&lt;span style=&quot;white-space: pre;&quot;&gt;&#x9;&lt;/span&gt;L2缓存：4ns。&lt;br&gt;&lt;/div&gt;&lt;div&gt;&lt;span style=&quot;white-space: pre;&quot;&gt;&#x9;&lt;/span&gt;&lt;span style=&quot;white-space: pre;&quot;&gt;&#x9;&lt;/span&gt;主内存：100ns。（ddr4 10ns左右）&lt;br&gt;&lt;/div&gt;&lt;div&gt;&lt;span style=&quot;white-space: pre;&quot;&gt;&#x9;&lt;/span&gt;网络请求一次来回：150ms。&lt;br&gt;&lt;/div&gt;&lt;div&gt;&lt;br&gt;&lt;/div&gt;&lt;div&gt;&lt;span style=&quot;white-space: pre;&quot;&gt;&#x9;&lt;/span&gt;磁盘：&lt;br&gt;&lt;/div&gt;&lt;div&gt;&lt;span style=&quot;white-space: pre;&quot;&gt;&#x9;&lt;/span&gt;&lt;span style=&quot;white-space: pre;&quot;&gt;&#x9;&lt;/span&gt;HDD：1-10ms&amp;nbsp; 读写延时。&lt;br&gt;&lt;/div&gt;&lt;div&gt;&lt;span style=&quot;white-space: pre;&quot;&gt;&#x9;&lt;/span&gt;&lt;span style=&quot;white-space: pre;&quot;&gt;&#x9;&lt;/span&gt;SSD：0.1-1ms 读写延时。&lt;br&gt;&lt;/div&gt;&lt;div&gt;&lt;br&gt;&lt;/div&gt;" style="rounded=0;whiteSpace=wrap;html=1;fontSize=18;verticalAlign=top;align=left;" vertex="1" parent="1">
          <mxGeometry x="110" y="-280" width="710" height="240" as="geometry" />
        </mxCell>
        <mxCell id="E5HeOITvc19GQo7BnL5s-3" value="如何分析需求，有哪些方法论？" style="rounded=0;whiteSpace=wrap;html=1;fontSize=18;verticalAlign=top;align=left;" vertex="1" parent="1">
          <mxGeometry x="110" y="-870" width="710" height="330" as="geometry" />
        </mxCell>
        <mxCell id="E5HeOITvc19GQo7BnL5s-4" value="&lt;span class=&quot;math math-inline&quot; style=&quot;font-size: 18px;&quot;&gt;&lt;span class=&quot;katex&quot; style=&quot;font-size: 18px;&quot;&gt;&lt;span class=&quot;katex-html&quot; aria-hidden=&quot;true&quot; style=&quot;font-size: 18px;&quot;&gt;&lt;span class=&quot;base&quot; style=&quot;font-size: 18px;&quot;&gt;&lt;span class=&quot;mord&quot; style=&quot;font-size: 18px;&quot;&gt;1&lt;/span&gt;&lt;span class=&quot;mspace&quot; style=&quot;margin-right: 0.1667em; font-size: 18px;&quot;&gt;&lt;/span&gt;&lt;span class=&quot;mord mathnormal&quot; style=&quot;font-size: 18px;&quot;&gt;s&lt;/span&gt;&lt;span class=&quot;mspace&quot; style=&quot;margin-right: 0.2778em; font-size: 18px;&quot;&gt;&lt;/span&gt;&lt;span class=&quot;mrel&quot; style=&quot;font-size: 18px;&quot;&gt;=&lt;/span&gt;&lt;span class=&quot;mspace&quot; style=&quot;margin-right: 0.2778em; font-size: 18px;&quot;&gt;&lt;/span&gt;&lt;/span&gt;&lt;span class=&quot;base&quot; style=&quot;font-size: 18px;&quot;&gt;&lt;span class=&quot;strut&quot; style=&quot;height: 0.6444em; font-size: 18px;&quot;&gt;&lt;/span&gt;&lt;span class=&quot;mord&quot; style=&quot;font-size: 18px;&quot;&gt;1000&lt;/span&gt;&lt;span class=&quot;mspace&quot; style=&quot;margin-right: 0.1667em; font-size: 18px;&quot;&gt;&lt;/span&gt;&lt;span class=&quot;mord mathnormal&quot; style=&quot;font-size: 18px;&quot;&gt;m&lt;/span&gt;&lt;span class=&quot;mord mathnormal&quot; style=&quot;font-size: 18px;&quot;&gt;s&lt;/span&gt;&lt;span class=&quot;mspace&quot; style=&quot;margin-right: 0.2778em; font-size: 18px;&quot;&gt;&lt;/span&gt;&lt;span class=&quot;mrel&quot; style=&quot;font-size: 18px;&quot;&gt;=&lt;/span&gt;&lt;span class=&quot;mspace&quot; style=&quot;margin-right: 0.2778em; font-size: 18px;&quot;&gt;&lt;/span&gt;&lt;/span&gt;&lt;span class=&quot;base&quot; style=&quot;font-size: 18px;&quot;&gt;&lt;span class=&quot;strut&quot; style=&quot;height: 0.8389em; vertical-align: -0.1944em; font-size: 18px;&quot;&gt;&lt;/span&gt;&lt;span class=&quot;mord&quot; style=&quot;font-size: 18px;&quot;&gt;1&lt;/span&gt;&lt;span class=&quot;mpunct&quot; style=&quot;font-size: 18px;&quot;&gt;,&lt;/span&gt;&lt;span class=&quot;mspace&quot; style=&quot;margin-right: 0.1667em; font-size: 18px;&quot;&gt;&lt;/span&gt;&lt;span class=&quot;mord&quot; style=&quot;font-size: 18px;&quot;&gt;000&lt;/span&gt;&lt;span class=&quot;mpunct&quot; style=&quot;font-size: 18px;&quot;&gt;,&lt;/span&gt;&lt;span class=&quot;mspace&quot; style=&quot;margin-right: 0.1667em; font-size: 18px;&quot;&gt;&lt;/span&gt;&lt;span class=&quot;mord&quot; style=&quot;font-size: 18px;&quot;&gt;000&lt;/span&gt;&lt;span class=&quot;mspace&quot; style=&quot;margin-right: 0.1667em; font-size: 18px;&quot;&gt;&lt;/span&gt;&lt;span class=&quot;mord mathnormal&quot; style=&quot;font-size: 18px;&quot;&gt;μ&lt;/span&gt;&lt;span class=&quot;mord mathnormal&quot; style=&quot;font-size: 18px;&quot;&gt;s&lt;/span&gt;&lt;span class=&quot;mspace&quot; style=&quot;margin-right: 0.2778em; font-size: 18px;&quot;&gt;&lt;/span&gt;&lt;span class=&quot;mrel&quot; style=&quot;font-size: 18px;&quot;&gt;=&lt;/span&gt;&lt;span class=&quot;mspace&quot; style=&quot;margin-right: 0.2778em; font-size: 18px;&quot;&gt;&lt;/span&gt;&lt;/span&gt;&lt;span class=&quot;base&quot; style=&quot;font-size: 18px;&quot;&gt;&lt;span class=&quot;strut&quot; style=&quot;height: 0.8389em; vertical-align: -0.1944em; font-size: 18px;&quot;&gt;&lt;/span&gt;&lt;span class=&quot;mord&quot; style=&quot;font-size: 18px;&quot;&gt;1&lt;/span&gt;&lt;span class=&quot;mpunct&quot; style=&quot;font-size: 18px;&quot;&gt;,&lt;/span&gt;&lt;span class=&quot;mspace&quot; style=&quot;margin-right: 0.1667em; font-size: 18px;&quot;&gt;&lt;/span&gt;&lt;span class=&quot;mord&quot; style=&quot;font-size: 18px;&quot;&gt;000&lt;/span&gt;&lt;span class=&quot;mpunct&quot; style=&quot;font-size: 18px;&quot;&gt;,&lt;/span&gt;&lt;span class=&quot;mspace&quot; style=&quot;margin-right: 0.1667em; font-size: 18px;&quot;&gt;&lt;/span&gt;&lt;span class=&quot;mord&quot; style=&quot;font-size: 18px;&quot;&gt;000&lt;/span&gt;&lt;span class=&quot;mpunct&quot; style=&quot;font-size: 18px;&quot;&gt;,&lt;/span&gt;&lt;span class=&quot;mspace&quot; style=&quot;margin-right: 0.1667em; font-size: 18px;&quot;&gt;&lt;/span&gt;&lt;span class=&quot;mord&quot; style=&quot;font-size: 18px;&quot;&gt;000&lt;/span&gt;&lt;span class=&quot;mspace&quot; style=&quot;margin-right: 0.1667em; font-size: 18px;&quot;&gt;&lt;/span&gt;&lt;span class=&quot;mord mathnormal&quot; style=&quot;font-size: 18px;&quot;&gt;n&lt;/span&gt;&lt;span class=&quot;mord mathnormal&quot; style=&quot;font-size: 18px;&quot;&gt;s&lt;/span&gt;&lt;/span&gt;&lt;/span&gt;&lt;/span&gt;&lt;/span&gt;" style="text;html=1;align=center;verticalAlign=middle;whiteSpace=wrap;rounded=0;fontSize=18;fontStyle=1" vertex="1" parent="1">
          <mxGeometry x="160" y="-350" width="440" height="40" as="geometry" />
        </mxCell>
        <mxCell id="E5HeOITvc19GQo7BnL5s-5" value="&lt;div&gt;并发、并行、QPS、TPS、N个9&lt;/div&gt;&lt;div&gt;&lt;br&gt;&lt;/div&gt;&lt;div&gt;&lt;span style=&quot;white-space: pre;&quot;&gt;&#x9;&lt;/span&gt;&lt;br&gt;&lt;/div&gt;&lt;div&gt;&lt;br&gt;&lt;/div&gt;" style="rounded=0;whiteSpace=wrap;html=1;fontSize=18;verticalAlign=top;align=left;" vertex="1" parent="1">
          <mxGeometry x="890" y="-280" width="710" height="240" as="geometry" />
        </mxCell>
      </root>
    </mxGraphModel>
  </diagram>
</mxfile>
